<svg width="24" height="22" viewBox="0 0 24 22" fill="none" xmlns="http://www.w3.org/2000/svg">
<path d="M23.1512 9.70431C23.8328 9.1296 23.4784 8.01778 22.5901 7.94334L16.2472 7.41189C15.8811 7.38122 15.5614 7.15232 15.4143 6.8157L12.9171 1.09926C12.5677 0.29945 11.4331 0.299763 11.0841 1.09977L8.58591 6.82702C8.43877 7.16435 8.11824 7.39359 7.75147 7.42383L1.41789 7.94594C0.52833 8.01927 0.173208 9.13281 0.856068 9.70761L5.62539 13.7222C5.91506 13.966 6.04217 14.3525 5.95378 14.7207L4.51453 20.7153C4.30871 21.5726 5.2323 22.2574 5.99277 21.8114L11.4941 18.5851C11.8065 18.4019 12.1935 18.4019 12.5059 18.5851L18.0111 21.8137C18.771 22.2593 19.6942 21.5758 19.4897 20.719L18.058 14.7193C17.9703 14.3519 18.0972 13.9663 18.386 13.7228L23.1512 9.70431ZM12.5062 16.2238C12.1937 16.0401 11.8062 16.04 11.4936 16.2234L9.13995 17.6041C8.37934 18.0502 7.45552 17.3651 7.66168 16.5077L8.26762 13.9878C8.35612 13.6198 8.22924 13.2333 7.93982 12.9894L5.94443 11.3075C5.26288 10.733 5.6167 9.62128 6.50491 9.5464L9.19465 9.31966C9.56132 9.28875 9.88139 9.05896 10.0279 8.72143L11.0843 6.28825C11.4324 5.48643 12.5693 5.48573 12.9183 6.28712L13.9847 8.73512C14.1315 9.07207 14.4513 9.30135 14.8175 9.33222L17.5081 9.55904C18.3963 9.63391 18.7501 10.7456 18.0686 11.3201L16.0732 13.002C15.7838 13.246 15.6569 13.6324 15.7454 14.0004L16.3507 16.5179C16.557 17.3757 15.6324 18.0608 14.8718 17.6139L12.5062 16.2238Z" fill="#D6D6D6"/>
</svg>
